<?xml version='1.0' encoding='utf-8'?>
<svg xmlns="http://www.w3.org/2000/svg" width="210mm" height="297mm" fill-rule="evenodd" stroke-linejoin="round" stroke-width="28.222" baseProfile="tiny" preserveAspectRatio="xMidYMid" version="1.2" viewBox="0 0 21000 29700">
  <rect width="21000" height="29700" fill="none"/>
   <path d="m2366 3e3c-383 0-766 383-766 766v22569c0 383 383 766 766 766h16769c383 0 766-383 766-766v-22569c0-383-383-766-766-766h-16769z" fill="#808080"/>
   <path d="m2366 3e3c-383 0-766 383-766 766v22569c0 383 383 766 766 766h16769c383 0 766-383 766-766v-22569c0-383-383-766-766-766h-16769z" fill="none" stroke="#808080" stroke-linejoin="round"/>
   <path d="m2166 2800c-383 0-766 383-766 766v22569c0 383 383 766 766 766h16769c383 0 766-383 766-766v-22569c0-383-383-766-766-766h-16769z"/>
   <path d="m2166 2800c-383 0-766 383-766 766v22569c0 383 383 766 766 766h16769c383 0 766-383 766-766v-22569c0-383-383-766-766-766h-16769z" fill="none" stroke="#333" stroke-linejoin="round"/>
   <rect x="1400" y="2800" width="18301" height="24101" fill="none"/>
   <path d="m10600 26350c-110 0-204-24-300-77s-164-119-220-210c-55-92-80-182-80-288s25-196 80-287c56-92 124-158 220-211s190-77 300-77 204 24 300 77 164 119 220 211c55 91 80 181 80 287s-25 196-80 288c-56 91-124 157-220 210s-190 77-300 77z"/>
   <path d="m10600 26350c-110 0-204-24-300-77s-164-119-220-210c-55-92-80-182-80-288s25-196 80-287c56-92 124-158 220-211s190-77 300-77 204 24 300 77 164 119 220 211c55 91 80 181 80 287s-25 196-80 288c-56 91-124 157-220 210s-190 77-300 77z" fill="none" stroke="#fff" stroke-linejoin="round"/>
   <path d="m10451 25540c-36 0-71 35-71 71v288c0 36 35 72 71 72h288c36 0 72-36 72-72v-288c0-36-36-71-72-71h-288z"/>
   <path d="m10451 25540c-36 0-71 35-71 71v288c0 36 35 72 71 72h288c36 0 72-36 72-72v-288c0-36-36-71-72-71h-288z" fill="none" stroke="#fff" stroke-linejoin="bevel" stroke-width="30"/>
   <rect x="10380" y="25540" width="431" height="431" fill="none"/>
   <path d="m10600 3900c-18 0-34-4-50-13-16-10-27-21-37-37-9-16-13-32-13-50s4-34 13-50c10-16 21-27 37-37 16-9 32-13 50-13s34 4 50 13c16 10 27 21 37 37 9 16 13 32 13 50s-4 34-13 50c-10 16-21 27-37 37-16 9-32 13-50 13z" fill="#fff"/>
   <path d="m10600 3900c-18 0-34-4-50-13-16-10-27-21-37-37-9-16-13-32-13-50s4-34 13-50c10-16 21-27 37-37 16-9 32-13 50-13s34 4 50 13c16 10 27 21 37 37 9 16 13 32 13 50s-4 34-13 50c-10 16-21 27-37 37-16 9-32 13-50 13z" fill="none" stroke="#000" stroke-linejoin="round"/>
   <path d="m10600 24700h-7400v-19800h14800v19800h-7400z" fill="#fff"/>
   <path d="m10600 24700h-7400v-19800h14800v19800h-7400z" fill="none" stroke="#1c1c1c" stroke-linejoin="round"/>
</svg>